<svg width="34" height="36" viewBox="0 0 34 36" fill="none" xmlns="http://www.w3.org/2000/svg">
<rect x="0.346069" y="0.5" width="33.6539" height="35" rx="9.70748" fill="#113A5D"/>
<path d="M20.3166 20.4724C20.7754 20.2259 21.3006 20.0856 21.8599 20.0856H21.8618C21.9187 20.0856 21.9452 20.0173 21.9035 19.9794C21.3219 19.4574 20.6574 19.0358 19.9374 18.7319C19.9298 18.7281 19.9222 18.7262 19.9146 18.7224C21.092 17.8673 21.858 16.4775 21.858 14.9095C21.858 12.312 19.7573 10.2075 17.1654 10.2075C14.5736 10.2075 12.4748 12.312 12.4748 14.9095C12.4748 16.4775 13.2407 17.8673 14.42 18.7224C14.4125 18.7262 14.4049 18.7281 14.3973 18.7319C13.5498 19.0902 12.7895 19.604 12.1354 20.26C11.485 20.9092 10.9673 21.6787 10.611 22.5257C10.2605 23.3552 10.0713 24.2438 10.0536 25.1441C10.0531 25.1643 10.0566 25.1845 10.064 25.2033C10.0714 25.2222 10.0825 25.2393 10.0966 25.2538C10.1108 25.2683 10.1277 25.2798 10.1463 25.2877C10.165 25.2955 10.185 25.2996 10.2053 25.2996H11.341C11.4225 25.2996 11.4907 25.2332 11.4926 25.1517C11.5306 23.688 12.1164 22.3172 13.1535 21.2782C14.2248 20.2032 15.6505 19.6116 17.1673 19.6116C18.2424 19.6116 19.2738 19.9093 20.163 20.4667C20.1858 20.4811 20.2121 20.4891 20.239 20.4901C20.266 20.4911 20.2927 20.485 20.3166 20.4724ZM17.1673 18.1707C16.299 18.1707 15.4818 17.8313 14.8656 17.2151C14.5624 16.9127 14.3221 16.5533 14.1584 16.1576C13.9947 15.7619 13.911 15.3378 13.9119 14.9095C13.9119 14.0393 14.2513 13.2202 14.8656 12.604C15.4799 11.9878 16.2971 11.6484 17.1673 11.6484C18.0376 11.6484 18.8529 11.9878 19.4691 12.604C19.7722 12.9064 20.0126 13.2658 20.1763 13.6615C20.34 14.0572 20.4237 14.4813 20.4228 14.9095C20.4228 15.7798 20.0834 16.5989 19.4691 17.2151C18.8529 17.8313 18.0357 18.1707 17.1673 18.1707ZM24.1408 22.6831H22.5482V21.0905C22.5482 21.0071 22.4799 20.9388 22.3965 20.9388H21.3347C21.2513 20.9388 21.183 21.0071 21.183 21.0905V22.6831H19.5904C19.507 22.6831 19.4387 22.7514 19.4387 22.8348V23.8965C19.4387 23.98 19.507 24.0482 19.5904 24.0482H21.183V25.6409C21.183 25.7243 21.2513 25.7925 21.3347 25.7925H22.3965C22.4799 25.7925 22.5482 25.7243 22.5482 25.6409V24.0482H24.1408C24.2242 24.0482 24.2925 23.98 24.2925 23.8965V22.8348C24.2925 22.7514 24.2242 22.6831 24.1408 22.6831Z" fill="#FCFCFC"/>
</svg>
