<svg width="51" height="51" viewBox="0 0 51 51" fill="none" xmlns="http://www.w3.org/2000/svg">
<path fill-rule="evenodd" clip-rule="evenodd" d="M25.0308 6.27087C25.4452 6.27087 25.8427 6.43551 26.1358 6.72857C26.4288 7.02162 26.5934 7.41909 26.5934 7.83353V23.4601H42.22C42.6345 23.4601 43.032 23.6248 43.325 23.9178C43.6181 24.2109 43.7827 24.6083 43.7827 25.0228C43.7827 25.4372 43.6181 25.8347 43.325 26.1278C43.032 26.4208 42.6345 26.5855 42.22 26.5855H26.5934V42.212C26.5934 42.6265 26.4288 43.024 26.1358 43.317C25.8427 43.6101 25.4452 43.7747 25.0308 43.7747C24.6163 43.7747 24.2189 43.6101 23.9258 43.317C23.6328 43.024 23.4681 42.6265 23.4681 42.212V26.5855H7.84153C7.42709 26.5855 7.02962 26.4208 6.73656 26.1278C6.44351 25.8347 6.27887 25.4372 6.27887 25.0228C6.27887 24.6083 6.44351 24.2109 6.73656 23.9178C7.02962 23.6248 7.42709 23.4601 7.84153 23.4601H23.4681V7.83353C23.4681 7.41909 23.6328 7.02162 23.9258 6.72857C24.2189 6.43551 24.6163 6.27087 25.0308 6.27087Z" fill="#113A5D"/>
</svg>
