<svg width="36" height="36" viewBox="0 0 36 36" fill="none" xmlns="http://www.w3.org/2000/svg">
<rect x="0.83667" y="0.418335" width="35.1633" height="35.1633" rx="9.70748" fill="#113A5D"/>
<path d="M12.3337 17.5995C12.8547 17.5995 13.281 18.0259 13.281 18.5469V23.4922C13.281 24.0132 13.7073 24.4395 14.2284 24.4395H23.7021C24.2231 24.4395 24.6495 24.0132 24.6495 23.4922V13.8101C24.6495 13.289 24.2231 12.8627 23.7021 12.8627H18.9652C18.4442 12.8627 18.0179 12.4364 18.0179 11.9153C18.0179 11.3943 18.4442 10.968 18.9652 10.968H24.6495C25.6916 10.968 26.5442 11.8206 26.5442 12.8627V24.2311C26.5442 25.2732 25.6916 26.1259 24.6495 26.1259H13.281C12.2389 26.1259 11.3863 25.2732 11.3863 24.2311V18.5469C11.3863 18.0259 11.8126 17.5995 12.3337 17.5995ZM9.47261 10.968H11.3863V9.05428C11.3863 8.5427 11.8031 8.12585 12.3147 8.12585H12.3431C12.8642 8.12585 13.281 8.5427 13.281 9.05428V10.968H15.1852C15.6968 10.968 16.1137 11.3848 16.1231 11.8964V11.9248C16.1231 12.4459 15.7063 12.8627 15.1852 12.8627H13.281V14.7669C13.281 15.2785 12.8642 15.7048 12.3431 15.6953H12.3147C11.8031 15.6953 11.3863 15.2785 11.3863 14.7669V12.8627H9.47261C8.96103 12.8627 8.54419 12.4459 8.54419 11.9343V11.8964C8.54419 11.3848 8.96103 10.968 9.47261 10.968Z" fill="white"/>
<path d="M16.1231 14.7574H21.8073C22.3284 14.7574 22.7547 15.1838 22.7547 15.7048C22.7547 16.2259 22.3284 16.6522 21.8073 16.6522H16.1231C15.6021 16.6522 15.1758 16.2259 15.1758 15.7048C15.1758 15.1838 15.6021 14.7574 16.1231 14.7574ZM16.1231 17.5996H21.8073C22.3284 17.5996 22.7547 18.0259 22.7547 18.5469C22.7547 19.068 22.3284 19.4943 21.8073 19.4943H16.1231C15.6021 19.4943 15.1758 19.068 15.1758 18.5469C15.1758 18.0259 15.6021 17.5996 16.1231 17.5996ZM16.1231 20.4417H21.8073C22.3284 20.4417 22.7547 20.868 22.7547 21.389C22.7547 21.9101 22.3284 22.3364 21.8073 22.3364H16.1231C15.6021 22.3364 15.1758 21.9101 15.1758 21.389C15.1758 20.868 15.6021 20.4417 16.1231 20.4417Z" fill="white"/>
</svg>
