<svg width="25" height="25" viewBox="0 0 25 25" fill="none" xmlns="http://www.w3.org/2000/svg">
<g id="Bookmark_light">
<path id="Rectangle 1" d="M4.16565 9.12817C4.16565 6.29975 4.16565 4.88553 5.04433 4.00685C5.92301 3.12817 7.33722 3.12817 10.1656 3.12817H14.1656C16.9941 3.12817 18.4083 3.12817 19.287 4.00685C20.1656 4.88553 20.1656 6.29975 20.1656 9.12817V15.9558C20.1656 18.6391 20.1656 19.9807 19.3214 20.3911C18.4771 20.8014 17.4221 19.9725 15.3122 18.3147L14.6369 17.7842C13.4506 16.852 12.8574 16.386 12.1656 16.386C11.4739 16.386 10.8807 16.852 9.69436 17.7842L9.01911 18.3147C6.9092 19.9725 5.85424 20.8014 5.00994 20.3911C4.16565 19.9807 4.16565 18.6391 4.16565 15.9558V9.12817Z" stroke="#113A5D"/>
</g>
</svg>
