<svg width="25" height="24" viewBox="0 0 25 24" fill="none" xmlns="http://www.w3.org/2000/svg">
<path d="M19.9885 5.77772C20.6626 6.78661 20.6626 8.19108 20.6626 11C20.6626 13.8089 20.6626 15.2134 19.9885 16.2223C19.6966 16.659 19.3216 17.034 18.8849 17.3259C18.0035 17.9148 16.8203 17.9892 14.6626 17.9986V18L13.557 20.2111C13.1885 20.9482 12.1367 20.9482 11.7682 20.2111L10.6626 18V17.9986C8.5049 17.9892 7.32167 17.9148 6.44032 17.3259C6.00356 17.034 5.62855 16.659 5.33672 16.2223C4.6626 15.2134 4.6626 13.8089 4.6626 11C4.6626 8.19108 4.6626 6.78661 5.33672 5.77772C5.62855 5.34096 6.00356 4.96596 6.44032 4.67412C7.44921 4 8.85367 4 11.6626 4H13.6626C16.4715 4 17.876 4 18.8849 4.67412C19.3216 4.96596 19.6966 5.34096 19.9885 5.77772Z" stroke="#113A5D" stroke-linecap="round" stroke-linejoin="round"/>
<path d="M9.6626 9L15.6626 9" stroke="#113A5D" stroke-linecap="round" stroke-linejoin="round"/>
<path d="M9.6626 13H12.6626" stroke="#113A5D" stroke-linecap="round" stroke-linejoin="round"/>
</svg>
