<svg width="36" height="36" viewBox="0 0 36 36" fill="none" xmlns="http://www.w3.org/2000/svg">
<rect width="36" height="36" rx="9.70748" fill="#113A5D"/>
<path fill-rule="evenodd" clip-rule="evenodd" d="M22.459 16.8743L23.8333 15.4999C24.0679 15.2654 24.1851 15.1482 24.2696 15.036C24.8056 14.3238 24.8056 13.3428 24.2696 12.6306C24.1851 12.5184 24.0679 12.4011 23.8333 12.1666C23.5988 11.9321 23.4816 11.8149 23.3694 11.7304C22.6572 11.1944 21.6762 11.1944 20.964 11.7304C20.8518 11.8149 20.7345 11.9321 20.5 12.1666L20.5 12.1666L19.1064 13.5602C19.9033 14.9405 21.06 16.0883 22.459 16.8743ZM17.6518 15.0148L12.1897 20.4769C11.7647 20.902 11.5521 21.1145 11.4124 21.3756C11.2727 21.6367 11.2137 21.9314 11.0958 22.5209L10.6471 24.7645C10.5806 25.0971 10.5473 25.2634 10.6419 25.358C10.7365 25.4526 10.9028 25.4194 11.2355 25.3529L13.4791 24.9041C14.0686 24.7862 14.3633 24.7273 14.6244 24.5876C14.8855 24.4478 15.098 24.2353 15.5231 23.8102L21.0006 18.3327C19.6528 17.4819 18.5106 16.3475 17.6518 15.0148Z" fill="white"/>
</svg>
