<svg width="25" height="25" viewBox="0 0 25 25" fill="none" xmlns="http://www.w3.org/2000/svg">
<path d="M5.28502 14.0364L12.2376 20.5676C12.4771 20.7926 12.5969 20.9051 12.7381 20.9328C12.8016 20.9453 12.8671 20.9453 12.9306 20.9328C13.0718 20.9051 13.1916 20.7926 13.4311 20.5676L20.3837 14.0364C22.3399 12.1988 22.5774 9.17477 20.9322 7.05424L20.6228 6.65552C18.6546 4.11875 14.704 4.54419 13.321 7.44182C13.1257 7.85113 12.543 7.85113 12.3477 7.44182C10.9647 4.54419 7.01407 4.11876 5.04589 6.65552L4.73654 7.05424C3.0913 9.17478 3.32885 12.1988 5.28502 14.0364Z" fill="#F6002C" stroke="#F6002C" stroke-width="2"/>
</svg>
