<svg width="25" height="25" viewBox="0 0 25 25" fill="none" xmlns="http://www.w3.org/2000/svg">
<path d="M5.11938 14.2927L12.072 20.824C12.3115 21.049 12.4312 21.1614 12.5724 21.1891C12.636 21.2016 12.7014 21.2016 12.765 21.1891C12.9062 21.1614 13.0259 21.049 13.2654 20.824L20.218 14.2927C22.1742 12.4551 22.4118 9.43112 20.7665 7.31059L20.4572 6.91186C18.489 4.3751 14.5383 4.80054 13.1554 7.69817C12.96 8.10748 12.3774 8.10748 12.182 7.69817C10.7991 4.80054 6.84842 4.37511 4.88024 6.91187L4.57089 7.31059C2.92565 9.43112 3.1632 12.4551 5.11938 14.2927Z" stroke="#113A5D"/>
</svg>
