<svg width="44" height="44" viewBox="0 0 44 44" fill="none" xmlns="http://www.w3.org/2000/svg">
<rect width="43.415" height="43.415" rx="9.70748" fill="#113A5D"/>
<path d="M10.8503 21.7075C10.8503 15.7777 15.1996 10.9706 20.5646 10.9706C22.1165 10.9706 23.5819 11.3724 24.8818 12.0863C25.1644 12.2416 25.5074 12.1142 25.6478 11.8018C25.7881 11.4895 25.673 11.1104 25.3903 10.9552C23.936 10.1563 22.2969 9.70747 20.5646 9.70747C14.5684 9.70747 9.70748 15.0801 9.70748 21.7075C9.70748 28.3349 14.5684 33.7075 20.5646 33.7075C22.2969 33.7075 23.936 33.2585 25.3903 32.4597C25.6729 32.3045 25.7881 31.9255 25.6478 31.6132C25.5074 31.3008 25.1644 31.1733 24.8818 31.3286C23.5819 32.0425 22.1165 32.4443 20.5646 32.4443C15.1996 32.4443 10.8503 27.6372 10.8503 21.7074V21.7075Z" fill="white" stroke="white" stroke-width="0.0625"/>
<path d="M28.9687 16.2083C28.7455 15.9616 28.3837 15.9616 28.1605 16.2083C27.9374 16.4549 27.9374 16.8548 28.1605 17.1015L31.7565 21.0759H22.2789C21.9634 21.0759 21.7075 21.3588 21.7075 21.7075C21.7075 22.0563 21.9634 22.3391 22.2789 22.3391H31.7565L28.1605 26.3135C27.9374 26.5602 27.9374 26.9601 28.1605 27.2068C28.3837 27.4534 28.7455 27.4534 28.9687 27.2068L33.5402 22.1541C33.5937 22.095 33.6361 22.0247 33.6649 21.9473C33.6931 21.8712 33.7076 21.7897 33.7075 21.7075C33.7077 21.5467 33.6522 21.3919 33.5524 21.2749L33.5387 21.2593L28.9687 16.2083Z" fill="white" stroke="white" stroke-width="0.0625"/>
</svg>
