<svg width="35" height="36" viewBox="0 0 35 36" fill="none" xmlns="http://www.w3.org/2000/svg">
<rect x="0.0454712" y="0.5" width="34.9545" height="35" rx="10" fill="#113A5D"/>
<path d="M24.7955 26.75L20.3864 22.3409C19.1137 23.3106 17.6743 23.7955 16.0682 23.7955C14.7652 23.7955 13.553 23.4773 12.4318 22.8409C11.3106 22.1742 10.4318 21.2803 9.79547 20.1591C9.1288 19.0379 8.79547 17.8258 8.79547 16.5227C8.79547 15.2197 9.1288 14.0076 9.79547 12.8864C10.4318 11.7652 11.3106 10.8864 12.4318 10.25C13.553 9.58333 14.7652 9.25 16.0682 9.25C17.3712 9.25 18.5834 9.58333 19.7046 10.25C20.8258 10.8864 21.7197 11.7652 22.3864 12.8864C23.0227 14.0076 23.3409 15.2197 23.3409 16.5227C23.3409 18.1591 22.8409 19.6136 21.8409 20.8864L26.25 25.2955L24.7955 26.75ZM16.0227 21.6591C17.447 21.6591 18.6591 21.1591 19.6591 20.1591C20.6288 19.1591 21.1137 17.9621 21.1137 16.5682C21.1137 15.1439 20.6288 13.947 19.6591 12.9773C18.6591 11.9773 17.447 11.4773 16.0227 11.4773C14.6288 11.4773 13.4318 11.9773 12.4318 12.9773C11.4318 13.947 10.9318 15.1439 10.9318 16.5682C10.9318 17.9621 11.4318 19.1591 12.4318 20.1591C13.4318 21.1591 14.6288 21.6591 16.0227 21.6591Z" fill="white"/>
</svg>
